<svg width="300" height="300" viewBox="0 0 300 300" fill="none" xmlns="http://www.w3.org/2000/svg">
<rect width="300" height="300" fill="#17131D"/>
<path d="M165.5 50.1297L150 81.8799L134.5 50.2595C133.833 49.9121 132 50.051 130 53.3862C123.333 63.8087 111.4 89.1354 117 107.062C114.667 104.283 103.5 99.141 77.5 100.809C73.1667 101.33 63.6 103.206 60 106.541L70 127.386L50 137.808C53.5 147.362 67 167.304 93 170.639C86.3333 181.235 74.1 207.952 78.5 230.047L103.5 213.371V249.85C106.833 250.198 114.6 250.163 119 247.245C124.5 243.597 146.5 230.047 150 213.371C153.5 230.027 175.5 243.234 181 246.877C185.4 249.792 193.167 249.827 196.5 249.48V213.371L221.5 229.701C225.9 207.632 213.667 180.948 207 170.364C233 167.033 246.5 147.115 250 137.573L231 127.163L240 106.343C236.4 103.012 226.833 101.138 222.5 100.618C196.5 98.9522 185.333 104.088 183 106.864C188.6 88.9587 176.667 63.6626 170 53.2526C168 49.9215 166.167 49.7827 165.5 50.1297Z" fill="#D65C88"/>
<path d="M116.516 76.6577C113.973 84.7154 112.337 93.6532 113.353 101.879C111.556 101.134 109.343 100.429 106.674 99.8287C100.055 98.34 90.5161 97.4686 77.34 98.3137L77.2706 98.3182L77.2015 98.3265C74.9291 98.5997 71.3254 99.2214 67.7985 100.213C64.3985 101.168 60.5798 102.596 58.301 104.707L56.9485 105.96L57.746 107.622L66.6998 126.287L48.8447 135.591L46.8971 136.606L47.6526 138.668C51.1904 148.326 64.1862 167.716 88.9742 172.523C85.8049 178.143 82.028 186.219 79.2124 195.29C75.8115 206.246 73.7329 218.909 76.0481 230.536L76.7781 234.201L79.8873 232.127L101 218.044V249.85V252.103L103.241 252.337C105.072 252.528 108.029 252.608 111.132 252.256C114.181 251.91 117.691 251.113 120.382 249.328C120.679 249.131 121.028 248.902 121.424 248.643C124.628 246.549 130.875 242.463 136.917 237.057C141.878 232.618 146.928 227.095 150.006 220.828C153.088 227.057 158.138 232.509 163.097 236.879C168.968 242.054 175.043 245.99 178.307 248.106C178.817 248.436 179.258 248.722 179.619 248.961C182.31 250.744 185.82 251.54 188.868 251.886C191.971 252.237 194.928 252.157 196.759 251.966L199 251.733V249.48V217.99L220.133 231.794L223.229 233.816L223.952 230.19C226.267 218.576 224.188 205.927 220.787 194.983C217.972 185.926 214.197 177.861 211.028 172.248C235.813 167.446 248.809 148.081 252.347 138.434L253.088 136.414L251.201 135.38L234.198 126.065L242.295 107.335L242.997 105.71L241.698 104.508C239.419 102.4 235.601 100.974 232.201 100.02C228.674 99.0294 225.07 98.4085 222.798 98.1356L222.729 98.1273L222.66 98.1229C209.484 97.2788 199.946 98.1491 193.327 99.6359C190.658 100.236 188.444 100.94 186.648 101.684C187.663 93.4679 186.027 84.5413 183.484 76.4943C180.298 66.4134 175.559 57.3032 172.124 51.9337C169.964 48.3559 166.899 46.5829 164.346 47.9121L163.615 48.2925L163.253 49.0329L149.995 76.1907L136.745 49.1591L136.383 48.4219L135.655 48.0425C133.099 46.7105 130.034 48.4882 127.875 52.0686C124.441 57.4444 119.701 66.5652 116.516 76.6577Z" stroke="white" stroke-opacity="0.1" stroke-width="5"/>
</svg>
